<svg width="61" height="61" viewBox="0 0 61 61" fill="none" xmlns="http://www.w3.org/2000/svg">
<path fill-rule="evenodd" clip-rule="evenodd" d="M30.5 61C47.3447 61 61 47.3447 61 30.5C61 13.6553 47.3447 0 30.5 0C13.6553 0 0 13.6553 0 30.5C0 47.3447 13.6553 61 30.5 61ZM33.5 57C48.1355 57 60 45.1355 60 30.5C60 15.8645 48.1355 4 33.5 4C18.8645 4 7 15.8645 7 30.5C7 45.1355 18.8645 57 33.5 57Z" fill="#D6EAD6"/>
<path fill-rule="evenodd" clip-rule="evenodd" d="M24 23C27.866 23 31 19.866 31 16C31 12.134 27.866 9 24 9C20.134 9 17 12.134 17 16C17 19.866 20.134 23 24 23ZM24.0001 22.0819C27.3591 22.0819 29.0002 19.3589 29.0002 15.9999C29.0002 12.6409 27.3591 9.91794 24.0001 9.91794C20.6411 9.91794 19.0002 12.6409 19.0002 15.9999C19.0002 19.3589 20.6411 22.0819 24.0001 22.0819Z" fill="#DFD5EC"/>
<path d="M47.5 16C40.5 16 37.6667 21.6666 37 25V57.5H40V54.5V46C39.8333 46 40.2 45.8 43 45C45.8 44.2 48.5 40.5 49 37.5V16H47.5Z" stroke="#D6EAD6"/>
<path d="M32.5 37.5547C32.5 30.7547 24.1667 29.7214 20 30.0547V42C24 47.5 27.5 46.2214 29.5 46.5547V58.5547H32.5V37.5547Z" stroke="#D6EAD6"/>
</svg>
